Coordinates
version=1
nRows=15
nColumns=46
inDegrees=yes

Units are S.I. units (second, meters, Newtons, ...)
Angles are in degrees.

endheader
time	pelvis_tilt	pelvis_list	pelvis_rotation	pelvis_tx	pelvis_ty	pelvis_tz	bb_angle	bb_tx	bb_ty	bb_tz	hip_flexion_r	hip_adduction_r	hip_rotation_r	knee_angle_r	knee_angle_r_beta	ankle_angle_r	subtalar_angle_r	mtp_angle_r	crank_angle_r	hip_flexion_l	hip_adduction_l	hip_rotation_l	knee_angle_l	knee_angle_l_beta	ankle_angle_l	subtalar_angle_l	mtp_angle_l	crank_angle_l	lumbar_extension	lumbar_bending	lumbar_rotation	arm_flex_r	arm_add_r	arm_rot_r	elbow_flex_r	pro_sup_r	wrist_flex_r	wrist_dev_r	arm_flex_l	arm_add_l	arm_rot_l	elbow_flex_l	pro_sup_l	wrist_flex_l	wrist_dev_l
      7.50500000	    -18.98160814	      5.02435939	      3.19074497	      0.15938066	      1.06421203	     -0.21283435	      0.00000000	      0.50000000	      0.00000000	      0.25000000	     44.17876034	    -10.96941063	     -5.67200294	     26.65957039	      0.46529728	    -37.28842379	     -4.55790405	      0.00000000	      0.00000000	     88.37808046	     -0.25966423	      0.90896659	    115.47248957	      2.01537514	    -10.17503129	    -14.83828718	      0.00000000	      0.00000000	    -59.21661375	     -0.76467291	     -9.20439008	     88.75147623	    -11.00903921	     31.96314223	     59.79091196	     40.52194937	      0.00000000	      0.00000000	     85.03077815	    -19.07648720	     21.04979411	     67.05534606	     48.60272930	      0.00000000	      0.00000000
      7.51000000	    -19.12230774	      5.16469942	      3.39860142	      0.15897278	      1.06573956	     -0.21147163	      0.00000000	      0.50000000	      0.00000000	      0.25000000	     43.36562888	    -11.01746608	     -5.60824133	     25.97734225	      0.45339015	    -37.94785840	     -4.74803618	      0.00000000	      0.00000000	     89.50127497	     -0.03989737	      1.00639597	    115.37226532	      2.01362590	     -9.74262197	    -14.57253310	      0.00000000	      0.00000000	    -59.25971823	     -0.90098913	     -9.45659637	     88.77654142	    -11.00682582	     31.86762774	     59.61083086	     40.49170687	      0.00000000	      0.00000000	     85.21759649	    -18.82082599	     21.05601273	     67.01223600	     48.59289519	      0.00000000	      0.00000000
      7.51500000	    -19.28655265	      5.42484458	      3.62511306	      0.15832431	      1.06693498	     -0.21068720	      0.00000000	      0.50000000	      0.00000000	      0.25000000	     42.74222268	    -11.22535906	     -5.47368728	     25.61836425	      0.44712481	    -38.43333600	     -4.91559630	      0.00000000	      0.00000000	     90.56406465	      0.33349792	      0.97505344	    115.15180354	      2.00977811	     -9.28394161	    -14.27297959	      0.00000000	      0.00000000	    -59.27732639	     -0.98276905	     -9.67391021	     88.85470795	    -11.00829988	     31.70256668	     59.45935150	     40.45810333	      0.00000000	      0.00000000	     85.33606093	    -18.50802817	     21.06294837	     66.97475513	     48.58457503	      0.00000000	      0.00000000
      7.52000000	    -19.47239702	      5.75180520	      3.85414865	      0.15761077	      1.06788271	     -0.20999446	      0.00000000	      0.50000000	      0.00000000	      0.25000000	     42.27833071	    -11.48025961	     -5.15819719	     25.60978816	      0.44697512	    -38.55942751	     -5.42604458	      0.00000000	      0.00000000	     91.54628720	      0.74420631	      0.85170774	    114.82003562	      2.00398767	     -8.74386963	    -14.08104028	      0.00000000	      0.00000000	    -59.26103510	     -1.09955593	     -9.94213675	     88.89973330	    -10.99717415	     31.50827294	     59.36488763	     40.42988050	      0.00000000	      0.00000000	     85.43730651	    -18.14348478	     21.02625547	     66.93305606	     48.57101267	      0.00000000	      0.00000000
      7.52500000	    -19.76401500	      6.15202831	      3.92150473	      0.15687265	      1.06854827	     -0.20891870	      0.00000000	      0.50000000	      0.00000000	      0.25000000	     42.20465135	    -11.67487303	     -4.62274524	     26.10374863	      0.45559636	    -38.59409414	     -6.22276471	      0.00000000	      0.00000000	     92.48229290	      0.96028008	      0.70921498	    114.36365352	      1.99602230	     -7.78489002	    -13.25338034	      0.00000000	      0.00000000	    -59.13752591	     -1.49189748	    -10.12419493	     88.85402206	    -10.85998541	     30.71364094	     59.11758823	     40.35317151	      0.00000000	      0.00000000	     85.53302532	    -17.06476864	     20.18218805	     66.39115965	     48.38896026	      0.00000000	      0.00000000
      7.53000000	    -19.93583874	      6.40554032	      4.19348209	      0.15616845	      1.06957307	     -0.20828181	      0.00000000	      0.50000000	      0.00000000	      0.25000000	     41.89914523	    -11.85541913	     -4.18793032	     26.55228423	      0.46342478	    -38.50230316	     -7.08100317	      0.00000000	      0.00000000	     93.16570449	      1.42506545	      0.60189394	    113.68996655	      1.98426424	     -7.20668028	    -13.26523840	      0.00000000	      0.00000000	    -59.20501421	     -1.52287631	    -10.38828286	     88.90182323	    -10.88291692	     30.58540199	     59.11511280	     40.35012143	      0.00000000	      0.00000000	     85.71883484	    -16.66026070	     19.93821890	     66.42670093	     48.36521002	      0.00000000	      0.00000000
      7.53500000	    -20.23791407	      6.56469590	      4.47289717	      0.15528896	      1.07001294	     -0.20788849	      0.00000000	      0.50000000	      0.00000000	      0.25000000	     41.97183637	    -11.98365896	     -3.75015529	     27.45276353	      0.47914111	    -38.36579149	     -8.10631239	      0.00000000	      0.00000000	     93.89930620	      1.88440517	      0.58858594	    112.93275244	      1.97104836	     -6.48523642	    -13.29782040	      0.00000000	      0.00000000	    -59.06330063	     -1.50469120	    -10.60932221	     88.95062880	    -10.93019987	     30.47202304	     59.16436964	     40.35572459	      0.00000000	      0.00000000	     85.81688414	    -16.15180930	     19.53459229	     66.42685627	     48.31944967	      0.00000000	      0.00000000
      7.54000000	    -20.57022582	      6.79621106	      4.93338030	      0.15449624	      1.07041168	     -0.20806919	      0.00000000	      0.50000000	      0.00000000	      0.25000000	     42.22841380	    -12.35931466	     -3.45990599	     28.69271646	      0.50078237	    -38.13710217	     -9.10441276	      0.00000000	      0.00000000	     94.47828018	      2.62411723	      0.47356201	    111.98506433	      1.95450809	     -5.71728306	    -13.23050976	      0.00000000	      0.00000000	    -58.92926507	     -1.33695082	    -10.91635257	     88.97305742	    -10.96149381	     30.34039156	     59.26275431	     40.36661292	      0.00000000	      0.00000000	     85.83541405	    -15.55665392	     19.09240250	     66.41411817	     48.26837717	      0.00000000	      0.00000000
      7.54500000	    -20.51321894	      7.30385975	      4.86376531	      0.15321345	      1.07181310	     -0.20642001	      0.00000000	      0.50000000	      0.00000000	      0.25000000	     42.29587686	    -12.43353164	     -2.33256133	     29.96392892	      0.52296922	    -38.04042465	    -10.27295899	      0.00000000	      0.00000000	     94.34066794	      2.65966111	      0.11092397	    110.79721198	      1.93377615	     -4.72017160	    -13.21017178	      0.00000000	      0.00000000	    -59.32675745	     -1.78009752	    -11.19323467	     89.04333237	    -10.89605664	     30.08582743	     59.41812463	     40.37191105	      0.00000000	      0.00000000	     86.10417336	    -14.99361857	     18.56631481	     66.38783274	     48.20240109	      0.00000000	      0.00000000
      7.55000000	    -20.94079569	      7.56372321	      5.36940248	      0.15225662	      1.07210332	     -0.20678076	      0.00000000	      0.50000000	      0.00000000	      0.25000000	     42.97045973	    -12.87901847	     -1.96660796	     31.63908373	      0.55220618	    -37.99878090	    -11.23595177	      0.00000000	      0.00000000	     94.65503345	      3.41774564	     -0.06614943	    109.47868055	      1.91076344	     -3.72767247	    -13.00992877	      0.00000000	      0.00000000	    -59.08509219	     -1.63353456	    -11.56915171	     89.00888243	    -11.02703361	     29.60708095	     59.67569794	     40.37524306	      0.00000000	      0.00000000	     86.15312791	    -13.94933159	     17.49177180	     66.20580616	     48.05280038	      0.00000000	      0.00000000
      7.55500000	    -21.26512591	      7.88156041	      5.54015319	      0.15109839	      1.07260232	     -0.20609445	      0.00000000	      0.50000000	      0.00000000	      0.25000000	     43.70211244	    -13.02482582	     -1.13743095	     33.36600303	      0.58234661	    -38.02573071	    -12.39337070	      0.00000000	      0.00000000	     94.62035710	      3.74916082	     -0.23708046	    107.98096973	      1.88462345	     -2.51746242	    -12.82526164	      0.00000000	      0.00000000	    -59.06014049	     -1.77319213	    -11.70905168	     89.02098930	    -11.05951675	     29.01577721	     60.05332497	     40.38860956	      0.00000000	      0.00000000	     86.24236392	    -12.97299379	     16.39140156	     66.12663164	     47.91646591	      0.00000000	      0.00000000
      7.56000000	    -21.36477855	      7.90476790	      5.69202271	      0.15006395	      1.07314207	     -0.20564463	      0.00000000	      0.50000000	      0.00000000	      0.25000000	     44.30044191	    -12.97591638	     -0.63654148	     35.30901961	      0.61625865	    -38.03752528	    -13.23173616	      0.00000000	      0.00000000	     94.26575213	      4.04656973	     -0.16937442	    106.47386154	      1.85831945	     -1.13214066	    -13.10263928	      0.00000000	      0.00000000	    -59.10704371	     -1.62834145	    -11.69907658	     89.10033109	    -11.02149156	     28.87815818	     60.19604101	     40.39927606	      0.00000000	      0.00000000	     86.33724441	    -12.60379690	     16.08944952	     66.19167150	     47.89190689	      0.00000000	      0.00000000
      7.56500000	    -21.58728501	      8.05710405	      5.87910721	      0.14893555	      1.07347422	     -0.20496485	      0.00000000	      0.50000000	      0.00000000	      0.25000000	     45.19780401	    -13.02804589	      0.00324052	     37.51202356	      0.65470832	    -38.05259780	    -14.27303145	      0.00000000	      0.00000000	     93.83035336	      4.32426924	     -0.21673754	    104.71344950	      1.82759446	      0.28673932	    -13.04686298	      0.00000000	      0.00000000	    -59.10124856	     -1.64504820	    -11.81632145	     89.14013306	    -11.06424901	     28.67549111	     60.39366540	     40.41155583	      0.00000000	      0.00000000	     86.43432488	    -12.24886437	     15.70147683	     66.24479890	     47.85603276	      0.00000000	      0.00000000
      7.57000000	    -21.91008511	      8.41221473	      6.02857411	      0.14791447	      1.07338740	     -0.20428659	      0.00000000	      0.50000000	      0.00000000	      0.25000000	     46.43135215	    -13.24511535	      0.70656496	     40.10004543	      0.69987782	    -38.01817495	    -15.67523043	      0.00000000	      0.00000000	     93.30925702	      4.47628852	     -0.55825427	    102.81717429	      1.79449822	      1.97297607	    -12.52523163	      0.00000000	      0.00000000	    -58.91403457	     -1.83096871	    -12.11252455	     89.07487245	    -11.20610864	     28.35976482	     60.79656522	     40.44503223	      0.00000000	      0.00000000	     86.52812208	    -11.63539244	     14.92396350	     66.30121632	     47.77625860	      0.00000000	      0.00000000
      7.57500000	    -22.02376293	      8.35883521	      6.04608335	      0.14687957	      1.07355641	     -0.20355522	      0.00000000	      0.50000000	      0.00000000	      0.25000000	     47.38926310	    -13.02171115	      1.27431719	     42.57128154	      0.74300903	    -37.93045810	    -16.45374036	      0.00000000	      0.00000000	     92.47565190	      4.54259375	     -0.45111418	    100.79137081	      1.75914128	      3.50150372	    -12.73041248	      0.00000000	      0.00000000	    -58.92859881	     -1.80200769	    -11.99793109	     89.13040751	    -11.28192119	     28.22979032	     61.01430941	     40.46545540	      0.00000000	      0.00000000	     86.53038762	    -11.40565618	     14.56085041	     66.36132656	     47.74462963	      0.00000000	      0.00000000
